<?xml version="1.0" encoding="UTF-8"?>
<svg version="1.1" xmlns="http://www.w3.org/2000/svg" width="2160" height="2160">
<path d="M0 0 C712.8 0 1425.6 0 2160 0 C2160 712.8 2160 1425.6 2160 2160 C1447.2 2160 734.4 2160 0 2160 C0 1447.2 0 734.4 0 0 Z " fill="#00AE44" transform="translate(0,0)"/>
<path d="M0 0 C6.89047441 5.46923475 9.69656028 11.95332541 10.80859375 20.55859375 C12.10602814 45.18489656 6.26043348 69.65565959 -1.91162109 92.77075195 C-2.9762731 95.92185379 -3.93072772 99.07664282 -4.82678223 102.27882385 C-7.69114553 112.46663764 -11.33597155 122.27320775 -15.19140625 132.12109375 C-15.8576186 133.83472171 -16.5236306 135.54842757 -17.18945312 137.26220703 C-19.17684839 142.36624831 -21.18231453 147.46306193 -23.19140625 152.55859375 C-23.62767334 153.66826508 -23.62767334 153.66826508 -24.07275391 154.800354 C-37.42096061 188.74705931 -52.92345993 221.5844647 -69.06719971 254.28088379 C-70.14770268 256.47004769 -71.22621505 258.66018086 -72.30419922 260.85058594 C-79.29149051 275.03785627 -86.44036466 289.10663546 -94.1015625 302.9453125 C-97.35446988 308.82552743 -100.50925252 314.75718472 -103.66656494 320.68902588 C-109.10903798 330.90880765 -114.67652275 341.04668543 -120.41113281 351.10595703 C-124.89661962 358.98933105 -129.22739272 366.95071894 -133.5300293 374.93505859 C-136.68776161 380.79211962 -139.88019496 386.62654739 -143.12890625 392.43359375 C-147.80437122 400.80026581 -152.34611934 409.23713358 -156.87646484 417.68310547 C-159.65948303 422.86857748 -162.45116566 428.04783498 -165.296875 433.19921875 C-171.22381568 443.93281115 -176.88769893 454.7607587 -182.30102539 465.76367188 C-185.43846998 472.12584065 -188.68770052 478.4133927 -192.01171875 484.6796875 C-197.03358655 494.16432836 -201.77075761 503.77221802 -206.44140625 513.43359375 C-207.27012375 515.14244133 -208.09906639 516.85117973 -208.92822266 518.55981445 C-210.58131757 521.967838 -212.23244801 525.37680199 -213.88183594 528.78662109 C-215.63668211 532.41407072 -217.39590942 536.03935605 -219.15823364 539.66317749 C-234.40179351 571.01112795 -249.12298503 602.66301282 -263.19140625 634.55859375 C-262.03616455 634.55335693 -260.88092285 634.54812012 -259.69067383 634.54272461 C-255.39494607 634.52459225 -251.09922167 634.51313163 -246.8034668 634.50366211 C-244.94603913 634.49864072 -243.0886154 634.49182234 -241.23120117 634.4831543 C-238.55777004 634.47099258 -235.88439129 634.46534342 -233.2109375 634.4609375 C-232.38366653 634.45577621 -231.55639557 634.45061493 -230.70405579 634.44529724 C-226.71043341 634.44491073 -223.09927576 634.64506581 -219.19140625 635.55859375 C-217.79009738 635.69363016 -216.38592222 635.80156023 -214.98046875 635.8828125 C-183.15848168 638.05534753 -148.22682231 644.85694287 -119.2578125 658.6328125 C-115.97729934 660.10253201 -112.56986764 661.20462894 -109.16015625 662.3359375 C-104.97316988 664.06031478 -101.11221961 666.3032634 -97.19140625 668.55859375 C-97.15176758 667.95426514 -97.11212891 667.34993652 -97.07128906 666.72729492 C-96.20739554 653.89418053 -95.08040788 641.13766287 -93.55078125 628.3671875 C-91.48853883 610.80070872 -89.67853101 593.20816147 -87.87890625 575.61328125 C-87.80497619 574.89055566 -87.73104612 574.16783007 -87.65487576 573.42320371 C-86.73169328 564.39527087 -85.81225633 555.36695838 -84.89411616 546.33851153 C-84.27153665 540.21771656 -83.64676798 534.09714674 -83.02140427 527.97663569 C-78.62440816 485.05991568 -78.62440816 485.05991568 -74.43286133 442.12277222 C-73.6894339 434.33471543 -72.86036017 426.56382861 -71.92854881 418.79598904 C-71.07194494 411.63529955 -70.33155258 404.4641006 -69.60546875 397.2890625 C-69.46248037 395.88563137 -69.31934904 394.4822148 -69.17608643 393.07881165 C-68.95209289 390.88423659 -68.72821138 388.68965064 -68.50482941 386.49501324 C-67.96385341 381.1810774 -67.41725575 375.86773999 -66.86767578 370.5546875 C-66.78943762 369.79798578 -66.71119946 369.04128407 -66.63059044 368.26165199 C-66.47356721 366.74298292 -66.31653841 365.22431442 -66.15950394 363.70564651 C-66.08237545 362.95973629 -66.00524696 362.21382607 -65.92578125 361.4453125 C-65.81043596 360.33008776 -65.81043596 360.33008776 -65.69276047 359.19233322 C-64.86644308 351.19722327 -64.05098117 343.20142125 -63.27981567 335.20075989 C-62.95772733 331.87804611 -62.62247072 328.55676603 -62.28338623 325.23574829 C-62.14158031 323.81288242 -62.00624994 322.38935231 -61.87823486 320.96517944 C-60.51503313 305.83234934 -55.50863782 294.24271709 -44.37890625 283.80859375 C-36.35909119 277.23875156 -26.68201755 274.14672522 -16.94140625 270.99609375 C-15.73556885 270.59970703 -14.52973145 270.20332031 -13.28735352 269.79492188 C-6.57045615 267.60216875 0.15269729 265.57142305 6.96875 263.71484375 C13.83526458 261.7313992 20.54529585 259.20370299 27.28662109 256.83813477 C33.86431091 254.54168327 40.40853621 252.46558315 47.1328125 250.6484375 C53.28671652 248.82384747 59.30945643 246.6184537 65.36010742 244.48022461 C71.52130108 242.31610849 77.68632061 240.40141595 83.9921875 238.69921875 C90.38157763 236.7895955 96.64237084 234.48947888 102.90429688 232.19921875 C103.85369141 231.85890625 104.80308594 231.51859375 105.78125 231.16796875 C106.62953369 230.85827148 107.47781738 230.54857422 108.35180664 230.22949219 C110.95087946 229.51973843 113.1283581 229.51069785 115.80859375 229.55859375 C115.18014643 241.6825336 114.02792338 253.70487794 112.69921875 265.76953125 C112.48816503 267.70868159 112.27737632 269.64786078 112.0668335 271.58706665 C111.62528942 275.64667645 111.18128843 279.70600715 110.73535156 283.76513672 C110.17914724 288.82875528 109.62788536 293.89289533 109.07834625 298.95724106 C106.8226611 319.73195542 104.48349763 340.49354017 101.98188019 361.24009323 C100.33470165 374.9202681 98.78851286 388.60933276 97.30859375 402.30859375 C97.20544609 403.26325153 97.10229843 404.21790932 96.99602509 405.20149612 C96.26374553 411.9868594 95.53569714 418.77267413 94.80859375 425.55859375 C93.97815667 433.30890727 93.14586685 441.05901543 92.30859375 448.80859375 C92.20544798 449.76357191 92.10230221 450.71855007 91.99603081 451.70246696 C90.52153011 465.32295783 88.95386272 478.92991887 87.3125 492.53125 C84.71947815 514.0187714 82.37547981 535.53083996 80.06280518 557.05010986 C79.115208 565.86446193 78.16367639 574.67838989 77.2109375 583.4921875 C77.10813917 584.44373655 77.00534084 585.39528561 76.89942741 586.37566948 C75.4009676 600.23507621 73.85174872 614.08783227 72.25619507 627.93637085 C71.09272737 638.03810475 69.95920325 648.14285391 68.84375 658.25 C68.68086658 659.7245844 68.51797901 661.19916835 68.35508728 662.67375183 C67.77395767 667.93628825 67.19337669 673.19888521 66.61297607 678.46150208 C62.99138521 711.29089743 62.99138521 711.29089743 61.1796875 726.1328125 C61.05956802 727.11951431 60.93944855 728.10621613 60.81568909 729.12281799 C60.28171517 733.49297477 59.73865898 737.86169998 59.17993164 742.22875977 C56.51794073 758.4434771 56.51794073 758.4434771 61.11328125 773.58203125 C65.93238199 779.20061414 71.72421597 782.15816456 78.99609375 782.87109375 C93.56884749 781.67660574 109.59494554 767.75083765 118.82421875 757.26953125 C121.22177766 753.99412597 123.0550532 750.61767751 124.87109375 746.99609375 C125.20947266 746.35607422 125.54785156 745.71605469 125.89648438 745.05664062 C132.35231654 732.25736021 133.07709592 717.70099182 134.68359375 703.68359375 C134.94476971 701.4542916 135.20641496 699.22504438 135.46850586 696.99584961 C137.40089808 680.47070989 139.21208206 663.93244092 140.98608398 647.38964844 C142.82268551 630.27700509 144.80415963 613.1830082 146.81147766 596.0896759 C147.64562608 588.97638837 148.46560767 581.86152508 149.28125 574.74609375 C153.62518704 536.87200987 153.62518704 536.87200987 155.94921875 518.13928223 C158.21958686 499.83723996 160.28587075 481.51440698 162.30859375 463.18359375 C162.38399132 462.50030754 162.45938889 461.81702133 162.53707123 461.11302948 C162.68909939 459.73517168 162.84112145 458.3573132 162.99313736 456.97945404 C163.3676389 453.58524094 163.74231201 450.19104682 164.1171875 446.796875 C164.19044754 446.13349876 164.26370758 445.47012253 164.33918762 444.78664398 C165.64421099 432.97683794 166.98931003 421.17214727 168.37109375 409.37109375 C168.46939484 408.53136017 168.56769592 407.69162659 168.66897583 406.82644653 C169.06808966 403.41871649 169.46747619 400.01101862 169.86735535 396.6033783 C171.17583364 385.44441976 172.45977478 374.28262395 173.74609375 363.12109375 C174.00006656 360.91837394 174.25405421 358.71565585 174.50805664 356.51293945 C175.01961264 352.07650677 175.53107639 347.64006347 176.04248047 343.20361328 C176.67404053 337.7251736 177.30592023 332.24677087 177.93809509 326.7684021 C178.18783789 324.60388307 178.43748175 322.43935261 178.68702698 320.27481079 C179.30699777 314.8984277 179.92868342 309.52225372 180.55395508 304.14648438 C181.72795345 294.03724326 182.88459708 283.92684913 183.98443604 273.80923462 C184.50213399 269.05611375 185.02904225 264.30403278 185.55664062 259.55200195 C185.80440067 257.29696832 186.04769908 255.04143919 186.28613281 252.78540039 C188.33952078 233.37327896 190.76203184 214.7951139 206.80859375 201.55859375 C213.91917381 196.60955064 221.37259289 193.63651856 229.55859375 190.93359375 C230.63625 190.56492187 231.71390625 190.19625 232.82421875 189.81640625 C238.42196522 187.92383482 244.03948303 186.18787844 249.73046875 184.59765625 C257.03181267 182.54497607 264.16032022 180.08692201 271.30859375 177.55859375 C279.58506698 174.6312238 287.85202813 171.94091048 296.30810547 169.58154297 C302.32429411 167.82342954 308.21302428 165.70900328 314.12109375 163.62109375 C322.69246001 160.61779927 331.2625132 157.71557906 340.00927734 155.26123047 C345.92074663 153.5845283 351.6876131 151.54966444 357.45605469 149.43652344 C362.61479434 147.55859375 362.61479434 147.55859375 364.80859375 147.55859375 C364.92962125 153.53529211 364.4804939 159.23772851 363.70703125 165.16015625 C363.53180687 166.55372597 363.53180687 166.55372597 363.3530426 167.97544861 C363.09982437 169.98876831 362.84461221 172.00183802 362.58761597 174.01467896 C361.88721062 179.50825027 361.2042558 185.00397119 360.5234375 190.5 C360.38110184 191.64873093 360.23876617 192.79746185 360.09211731 193.98100281 C358.52979416 206.68184491 357.13505181 219.40033963 355.74609375 232.12109375 C353.96471483 248.40531747 352.08983817 264.66927162 350.006073 280.91751099 C348.10462294 295.77982644 346.43939337 310.66437057 344.80859375 325.55859375 C343.00517462 342.02936462 341.11429783 358.48051961 339.00634766 374.91503906 C336.95582289 390.94281236 335.18339207 406.99787667 333.425354 423.06002808 C331.70633184 438.74538411 329.87346518 454.40889084 327.87158203 470.06054688 C326.38313453 481.71417373 325.03761691 493.37482474 323.80859375 505.05859375 C322.49375545 517.55816866 321.02814285 530.02916525 319.43359375 542.49609375 C317.38732694 558.4991133 315.56392369 574.5211849 313.80859375 590.55859375 C312.00535112 607.02938271 310.11429743 623.48052271 308.00634766 639.91503906 C305.95582289 655.94281236 304.18339207 671.99787667 302.425354 688.06002808 C300.79569527 702.92998029 299.080536 717.78284749 297.18359375 732.62109375 C295.57425952 745.21309576 294.08512568 757.80987811 292.74609375 770.43359375 C292.66551727 771.19312347 292.5849408 771.9526532 292.50192261 772.73519897 C292.42193024 773.48927032 292.34193787 774.24334167 292.25952148 775.02026367 C289.75901612 798.57178503 286.94768329 822.08339038 283.80859375 845.55859375 C278.48034287 847.44868798 273.14983844 849.33225037 267.81738281 851.21044922 C266.01340414 851.84679072 264.20999345 852.48474528 262.40722656 853.12451172 C251.96870358 856.82756317 241.51137129 860.31825405 230.88438416 863.44215393 C223.54378543 865.60776838 216.33587354 868.06512171 209.12109375 870.62109375 C200.7951262 873.53437404 192.48873824 876.34643586 183.99536133 878.72680664 C177.01005814 880.71651749 170.19717975 883.18286475 163.35229492 885.60449219 C156.06556885 888.16543553 148.73555359 890.44942977 141.3046875 892.55078125 C138.11424917 893.47048302 134.95855776 894.50860575 131.80859375 895.55859375 C130.15859375 887.30859375 128.50859375 879.05859375 126.80859375 870.55859375 C125.40609375 871.89921875 124.00359375 873.23984375 122.55859375 874.62109375 C112.55568832 883.90209063 101.24548767 892.13300847 89.80859375 899.55859375 C90.26624671 902.4753686 90.72467758 905.39201758 91.18359375 908.30859375 C91.32152344 909.18749268 91.45945312 910.0663916 91.6015625 910.97192383 C92.29982501 915.40417776 93.02464396 919.82807164 93.80859375 924.24609375 C94.14406875 926.34992003 94.4770704 928.45414115 94.80859375 930.55859375 C94.93266602 931.25662109 95.05673828 931.95464844 95.18457031 932.67382812 C104.52349547 986.23466129 97.61047413 1051.61250139 74.81176758 1101.31665039 C73.7680255 1103.64925771 72.82742361 1106.00623615 71.8984375 1108.38671875 C60.22760102 1137.82196408 43.44308546 1164.82607318 23.80859375 1189.55859375 C23.08615479 1190.47825928 23.08615479 1190.47825928 22.34912109 1191.41650391 C7.12986143 1210.75774766 -9.80678489 1228.35299466 -29.19140625 1243.55859375 C-29.78727539 1244.03232422 -30.38314453 1244.50605469 -30.99707031 1244.99414062 C-46.49664804 1257.29145442 -62.87156566 1268.02056017 -80.24267578 1277.48046875 C-82.27276933 1278.60360745 -84.27809285 1279.76314575 -86.28125 1280.93359375 C-93.3966775 1285.07186554 -100.31642324 1288.67911161 -108.12890625 1291.390625 C-110.50809618 1292.29799463 -112.5833767 1293.26087324 -114.8203125 1294.44140625 C-120.04566124 1297.10870531 -125.55744466 1298.82395978 -131.12890625 1300.62109375 C-132.16208984 1300.95947266 -133.19527344 1301.29785156 -134.25976562 1301.64648438 C-136.29530641 1302.31296606 -138.33199172 1302.97596354 -140.36987305 1303.63525391 C-142.84697076 1304.44587808 -145.30760993 1305.29328117 -147.76953125 1306.1484375 C-152.76628465 1307.81814888 -157.86012546 1308.94116415 -163.00390625 1310.05859375 C-164.84405655 1310.46345294 -166.68389951 1310.86971148 -168.5234375 1311.27734375 C-169.91393311 1311.58514771 -169.91393311 1311.58514771 -171.33251953 1311.89916992 C-174.27212762 1312.57721274 -177.18881252 1313.32254352 -180.109375 1314.078125 C-202.26033386 1319.62163551 -224.60321011 1319.97937229 -247.31640625 1320.05859375 C-248.57380615 1320.0688559 -249.83120605 1320.07911804 -251.12670898 1320.08969116 C-274.8782632 1320.24373378 -298.00301123 1317.81136398 -321.19140625 1312.55859375 C-322.3721875 1312.32011719 -323.55296875 1312.08164063 -324.76953125 1311.8359375 C-334.7089156 1309.75454322 -344.34514293 1306.72208766 -354.00390625 1303.62109375 C-354.66535645 1303.41008026 -355.32680664 1303.19906677 -356.00830078 1302.98165894 C-364.58360624 1300.23539662 -372.93498799 1297.15762158 -381.19140625 1293.55859375 C-381.98973877 1293.21965088 -382.78807129 1292.88070801 -383.6105957 1292.53149414 C-416.58962961 1278.48323651 -450.60459802 1259.14540198 -476.19140625 1233.55859375 C-482.68472759 1259.87527592 -488.46512333 1286.33331461 -493.00390625 1313.05859375 C-493.14479675 1313.88588989 -493.28568726 1314.71318604 -493.43084717 1315.56555176 C-497.17024415 1337.64942018 -500.02622778 1359.82797751 -502.67089844 1382.06542969 C-503.01521479 1384.95996523 -503.36220875 1387.85415749 -503.71191406 1390.74804688 C-506.91307562 1417.24220963 -510.04377312 1443.76472022 -511.31640625 1470.43359375 C-511.42629278 1472.62937088 -511.53828717 1474.82501035 -511.65304565 1477.02053833 C-511.75335024 1478.9521269 -511.84788517 1480.88401278 -511.94189453 1482.81591797 C-512.11789978 1485.45599666 -512.35895245 1488.01590881 -512.68481445 1490.63500977 C-513.41852323 1496.99707935 -513.53489646 1503.38423649 -513.7265625 1509.78125 C-513.76966403 1511.13603182 -513.81308068 1512.49080365 -513.85679626 1513.8455658 C-513.97006152 1517.38157001 -514.07909412 1520.91769205 -514.18719482 1524.45385742 C-514.29863357 1528.0741382 -514.4141452 1531.69428888 -514.52929688 1535.31445312 C-514.75394833 1542.39571236 -514.97412092 1549.47710434 -515.19140625 1556.55859375 C-525.003501 1559.68486679 -534.81604073 1562.80974095 -544.62890625 1565.93359375 C-545.37417446 1566.17084797 -546.11944267 1566.40810219 -546.88729477 1566.65254593 C-567.7510211 1573.29410986 -588.62158619 1579.91318506 -609.50390625 1586.49609375 C-630.4544615 1593.10129728 -651.38914443 1599.75504938 -672.31640625 1606.43359375 C-673.04229321 1606.66524357 -673.76818016 1606.89689339 -674.51606369 1607.1355629 C-675.98262533 1607.60358234 -677.44918664 1608.07160278 -678.91574764 1608.53962421 C-682.57531827 1609.70748065 -686.23491225 1610.8752639 -689.89453125 1612.04296875 C-690.61818438 1612.27387396 -691.3418375 1612.50477917 -692.08741951 1612.7426815 C-707.74246515 1617.73753601 -723.40348001 1622.71351433 -739.06640625 1627.68359375 C-740.02843523 1627.98887497 -740.02843523 1627.98887497 -741.00989914 1628.30032349 C-748.11634351 1630.55540913 -755.22293007 1632.81004638 -762.32958984 1635.06445312 C-770.41527837 1637.62945439 -778.5006568 1640.19543228 -786.5859375 1642.76171875 C-787.26389814 1642.97690281 -787.94185879 1643.19208687 -788.64036369 1643.41379166 C-796.03309335 1645.76026526 -803.42570924 1648.10709674 -810.81811523 1650.45458984 C-811.78526002 1650.7617093 -811.78526002 1650.7617093 -812.77194309 1651.07503319 C-815.95946921 1652.08724889 -819.14698456 1653.09949851 -822.33448792 1654.11178589 C-829.22257457 1656.29910685 -836.11125205 1658.48454968 -843.00061035 1660.66786194 C-847.877116 1662.21349091 -852.75316955 1663.76054092 -857.62890625 1665.30859375 C-858.52770508 1665.59392975 -859.42650391 1665.87926575 -860.35253906 1666.17324829 C-871.50570162 1669.71667961 -882.62817284 1673.33368381 -893.71533203 1677.0793457 C-899.59709389 1679.05777617 -905.50727286 1680.85921859 -911.4753418 1682.55688477 C-918.28098426 1684.52256264 -924.97941013 1686.7968879 -931.69140625 1689.05859375 C-939.67913576 1691.7487022 -947.66184934 1694.3631994 -955.76611328 1696.67797852 C-962.07362867 1698.49121625 -968.31850632 1700.48807434 -974.56640625 1702.49609375 C-976.16137939 1703.0065625 -976.16137939 1703.0065625 -977.78857422 1703.52734375 C-982.81481917 1705.13894072 -987.83382117 1706.76799991 -992.83984375 1708.44140625 C-993.70561035 1708.72636963 -994.57137695 1709.01133301 -995.46337891 1709.30493164 C-997.0678744 1709.83338764 -998.6693755 1710.37106094 -1000.26708984 1710.91967773 C-1004.39099195 1712.26710515 -1007.0116505 1712.58911352 -1011.19140625 1711.55859375 C-1010.61734036 1702.73290482 -1009.12434522 1694.16874697 -1007.44140625 1685.49609375 C-1007.16879096 1684.07307433 -1006.89658066 1682.64997727 -1006.62475586 1681.22680664 C-1006.07582587 1678.35642989 -1005.52395508 1675.48663986 -1004.97021484 1672.6171875 C-1004.27499127 1669.00665054 -1003.59918683 1665.39274836 -1002.9296875 1661.77734375 C-1000.20545216 1647.15724324 -997.04143955 1632.65694441 -993.69543457 1618.16864014 C-992.74229331 1614.02271352 -991.82004707 1609.87098215 -990.91577148 1605.71411133 C-987.15148646 1588.4580761 -982.97637025 1571.32467514 -978.65386963 1554.20245361 C-977.7750939 1550.7183086 -976.90039246 1547.2331412 -976.02539062 1543.74804688 C-975.00725078 1539.69366247 -973.98852514 1535.63943022 -972.96653748 1531.58601379 C-971.52977102 1525.8868063 -970.09593294 1520.1870615 -968.68579102 1514.48120117 C-968.46149918 1513.57542831 -968.23720734 1512.66965546 -968.00611877 1511.73643494 C-967.60973806 1510.13298549 -967.21516201 1508.52908788 -966.82310486 1506.92457581 C-965.47491532 1501.47636582 -963.90034924 1496.11114713 -962.25390625 1490.74609375 C-961.83141602 1489.36659546 -961.83141602 1489.36659546 -961.40039062 1487.95922852 C-961.17673828 1487.23018311 -960.95308594 1486.5011377 -960.72265625 1485.75 C-959.07339588 1480.26746504 -957.66070706 1474.73238208 -956.25390625 1469.18359375 C-954.04410362 1460.50191372 -951.49926109 1451.98208367 -948.72241211 1443.46606445 C-946.93534717 1437.96706236 -945.30187621 1432.45846454 -943.81640625 1426.87109375 C-941.45113308 1418.03345349 -938.53718745 1409.39154746 -935.57666016 1400.73754883 C-933.50000136 1394.63294348 -931.57022516 1388.51093831 -929.78515625 1382.31640625 C-927.21815311 1373.43641004 -924.23960135 1364.72053808 -921.19140625 1355.99609375 C-920.16749543 1353.05835216 -919.14647119 1350.11963331 -918.12890625 1347.1796875 C-917.88108398 1346.46404633 -917.63326172 1345.74840515 -917.37792969 1345.01107788 C-915.43316793 1339.3539895 -913.63919023 1333.65691109 -911.87942505 1327.9400177 C-910.47593475 1323.40223293 -908.91572969 1318.98271503 -907.19140625 1314.55859375 C-906.21551098 1311.85642432 -905.2666685 1309.14486918 -904.31640625 1306.43359375 C-903.79185741 1304.94264121 -903.26711479 1303.45175684 -902.7421875 1301.9609375 C-902.48260254 1301.22343262 -902.22301758 1300.48592773 -901.95556641 1299.72607422 C-900.81131038 1296.48048158 -899.65894132 1293.2378689 -898.50390625 1289.99609375 C-897.94123047 1288.41634766 -897.94123047 1288.41634766 -897.3671875 1286.8046875 C-896.26449327 1283.76037221 -895.13305915 1280.72869669 -893.99243164 1277.69848633 C-893.15450575 1275.46001622 -892.32948201 1273.21714233 -891.5078125 1270.97265625 C-891.0756543 1269.79316406 -891.0756543 1269.79316406 -890.63476562 1268.58984375 C-890.05050952 1266.99382708 -889.46716652 1265.39747584 -888.88476562 1263.80078125 C-887.11554818 1258.97779204 -885.26742723 1254.19493836 -883.34594727 1249.43066406 C-882.23727213 1246.67269106 -881.14228226 1243.9095371 -880.05085754 1241.1446991 C-859.63642503 1189.44910878 -836.88027861 1138.76812296 -812.71533203 1088.72412109 C-811.10410155 1085.37724279 -809.50428401 1082.02507286 -807.90625 1078.671875 C-802.71415792 1067.79595222 -797.46790418 1056.97696613 -791.78857422 1046.34619141 C-788.82553663 1040.79666141 -785.98566014 1035.19485729 -783.19140625 1029.55859375 C-779.18241997 1021.48447512 -775.03713733 1013.49248259 -770.81640625 1005.52734375 C-768.46245037 1001.08336037 -766.14346859 996.62178212 -763.82788086 992.15771484 C-758.42662257 981.75302959 -752.89349911 971.42958527 -747.25390625 961.15234375 C-744.60787957 956.32963702 -741.99385516 951.49024438 -739.38525391 946.6472168 C-732.48843252 933.85372667 -725.39245878 921.18293271 -718.19140625 908.55859375 C-717.56862793 907.46530762 -716.94584961 906.37202148 -716.30419922 905.24560547 C-711.61185743 897.00975676 -706.90586611 888.7817989 -702.19140625 880.55859375 C-701.55944336 879.45580078 -700.92748047 878.35300781 -700.27636719 877.21679688 C-691.38469936 861.71313842 -682.34112157 846.30492376 -673.203125 830.9453125 C-671.2041443 827.58003819 -669.2122072 824.21070029 -667.22265625 820.83984375 C-658.72372033 806.44607938 -650.11221167 792.1259057 -641.41362 777.85237122 C-638.89047171 773.71088945 -636.37666498 769.56383988 -633.8671875 765.4140625 C-622.36575763 746.40202586 -610.63093038 727.54270084 -598.7421875 708.77026367 C-596.02464853 704.47577514 -593.32401929 700.17138737 -590.640625 695.85546875 C-582.5519189 682.84849885 -574.2967349 669.96617891 -565.89453125 657.15966797 C-563.39582447 653.34355243 -560.91668446 649.51493207 -558.44140625 645.68359375 C-558.05690308 645.08865616 -557.6723999 644.49371857 -557.27624512 643.88075256 C-555.10143383 640.51552698 -552.92751071 637.14973638 -550.75585938 633.7824707 C-543.38002716 622.35426243 -535.92552177 610.97863041 -528.44140625 599.62109375 C-527.81300842 598.66726807 -527.1846106 597.71344238 -526.53717041 596.73071289 C-515.42329365 579.86972969 -504.17250122 563.10651425 -492.81103516 546.41162109 C-490.2369592 542.62799788 -487.67224121 538.83809684 -485.109375 535.046875 C-476.41987634 522.1980854 -467.6506682 509.40883394 -458.76953125 496.69140625 C-455.63686291 492.20456329 -452.5329223 487.69884909 -449.44140625 483.18359375 C-441.18060141 471.13748139 -432.70514392 459.25102261 -424.11987305 447.43457031 C-420.18924841 442.00018176 -416.38944197 436.48668148 -412.62890625 430.93359375 C-408.01689762 424.12419695 -403.22200011 417.49525093 -398.24487305 410.94873047 C-394.69834579 406.27493781 -391.33199427 401.51741694 -388.19140625 396.55859375 C-389.25617187 396.9453125 -390.3209375 397.33203125 -391.41796875 397.73046875 C-398.14849565 400.1533647 -404.85146235 402.53947441 -411.75390625 404.43359375 C-418.31637043 406.23921973 -424.74341901 408.381525 -431.19140625 410.55859375 C-438.72226166 413.09820961 -446.23791842 415.51473962 -453.8984375 417.6328125 C-462.29308547 419.99287367 -470.64911942 422.56285859 -478.81640625 425.62109375 C-482.63331159 427.04329854 -486.45204745 428.22646298 -490.37890625 429.30859375 C-497.06343355 431.16581633 -503.61893217 433.33937605 -510.19140625 435.55859375 C-517.72225886 438.0982222 -525.23791828 440.51473959 -532.8984375 442.6328125 C-541.29308547 444.99287367 -549.64911942 447.56285859 -557.81640625 450.62109375 C-561.57287291 452.02012972 -565.32559209 453.18657431 -569.19140625 454.24609375 C-577.6163867 456.5879211 -585.87625511 459.40927325 -594.15820312 462.2097168 C-604.11745854 465.56987666 -614.14260128 468.67277619 -624.22607422 471.63720703 C-633.78340591 474.45421262 -643.23038362 477.54667458 -652.67114258 480.73071289 C-659.04362632 482.87036766 -665.41912012 484.84133254 -671.8984375 486.6328125 C-680.29308547 488.99287367 -688.64911942 491.56285859 -696.81640625 494.62109375 C-700.63331159 496.04329854 -704.45204745 497.22646298 -708.37890625 498.30859375 C-715.06343355 500.16581633 -721.61893217 502.33937605 -728.19140625 504.55859375 C-735.72225886 507.0982222 -743.23791828 509.51473959 -750.8984375 511.6328125 C-759.29308547 513.99287367 -767.64911942 516.56285859 -775.81640625 519.62109375 C-779.63331159 521.04329854 -783.45204745 522.22646298 -787.37890625 523.30859375 C-793.99980685 525.14934963 -800.49379835 527.29746684 -807.00390625 529.49609375 C-814.52151763 532.03304867 -822.04206201 534.45026429 -829.67236328 536.62255859 C-837.03691799 538.74813666 -844.27760994 541.23709636 -851.5390625 543.6875 C-857.78250405 545.7845338 -864.03911383 547.69257935 -870.390625 549.4375 C-875.64193314 550.98644701 -880.81682738 552.74569507 -886.00390625 554.49609375 C-893.52158745 557.03284824 -901.042054 559.45026202 -908.67236328 561.62255859 C-916.03691799 563.74813666 -923.27760994 566.23709636 -930.5390625 568.6875 C-936.78250405 570.7845338 -943.03911383 572.69257935 -949.390625 574.4375 C-954.64193314 575.98644701 -959.81682738 577.74569507 -965.00390625 579.49609375 C-972.52158745 582.03284824 -980.042054 584.45026202 -987.67236328 586.62255859 C-995.03691799 588.74813666 -1002.27760994 591.23709636 -1009.5390625 593.6875 C-1015.78250405 595.7845338 -1022.03911383 597.69257935 -1028.390625 599.4375 C-1033.64193804 600.98644845 -1038.81679012 602.74579308 -1044.00390625 604.49609375 C-1052.50265608 607.36225849 -1061.01455214 610.0846766 -1069.64453125 612.52734375 C-1071.75448221 613.14080967 -1073.85460127 613.79355427 -1075.92578125 614.52734375 C-1084.18863463 617.44364494 -1093.28367922 618.27407752 -1101.64453125 615.3515625 C-1111.60061252 610.50839489 -1117.58261784 604.85486115 -1122.00390625 594.74609375 C-1125.04723774 585.57371633 -1122.74169587 575.99805592 -1120.62890625 566.87109375 C-1120.0741834 564.38672664 -1119.51949734 561.90235132 -1118.96484375 559.41796875 C-1118.67319336 558.13083984 -1118.38154297 556.84371094 -1118.08105469 555.51757812 C-1117.18776675 551.56287981 -1116.33052147 547.60090338 -1115.48046875 543.63671875 C-1112.43088084 529.44658464 -1109.20694109 515.31733867 -1105.74853516 501.2199707 C-1103.44720215 491.77881987 -1101.38951264 482.29792834 -1099.38818359 472.78930664 C-1097.57343372 464.21470381 -1095.58126441 455.6952483 -1093.50708008 447.18017578 C-1091.21287313 437.73257091 -1089.06627496 428.25416328 -1086.93774414 418.76806641 C-1086.63951243 417.4391216 -1086.34125371 416.11018285 -1086.04296875 414.78125 C-1085.81833199 413.78019226 -1085.81833199 413.78019226 -1085.5891571 412.75891113 C-1084.47756412 407.81278585 -1083.34998412 402.87045805 -1082.21484375 397.9296875 C-1082.0486705 397.20620621 -1081.88249725 396.48272491 -1081.71128845 395.73731995 C-1081.37381514 394.26822561 -1081.03632629 392.79913484 -1080.69882202 391.33004761 C-1078.04777437 379.7891333 -1075.45199103 368.23908507 -1072.94726562 356.66549683 C-1071.70993931 350.95998149 -1070.4526698 345.25886027 -1069.19140625 339.55859375 C-1068.96888184 338.54651855 -1068.74635742 337.53444336 -1068.51708984 336.49169922 C-1060.56665294 300.80458611 -1040.02388677 272.52185719 -1009.23046875 252.82226562 C-998.21698606 245.99686016 -986.73831806 240.06253936 -973.7734375 238.24609375 C-971.40991977 237.61677587 -969.74631866 236.84352114 -967.609375 235.69921875 C-962.52115502 233.07136058 -957.21789195 231.72691416 -951.69140625 230.30859375 C-950.00700439 229.86688843 -950.00700439 229.86688843 -948.28857422 229.41625977 C-944.59233643 228.45243003 -940.8922898 227.5044172 -937.19140625 226.55859375 C-935.89608574 226.22473014 -934.60083893 225.89058051 -933.30566406 225.55615234 C-908.65690487 219.20147026 -883.87592008 213.78813417 -858.86938477 209.0168457 C-848.35976706 207.00667066 -837.87879285 204.86734273 -827.39944458 202.70541382 C-808.18513432 198.74242222 -788.94179714 194.98602344 -769.65527344 191.39257812 C-765.22046204 190.56539202 -760.78769413 189.72763895 -756.35546875 188.88671875 C-755.62113617 188.74739929 -754.88680359 188.60807983 -754.13021851 188.46453857 C-752.63427373 188.18068312 -751.13833259 187.89680849 -749.64239502 187.61291504 C-728.55745743 183.61368486 -707.46265315 179.66689606 -686.36865234 175.71582031 C-680.29512382 174.57813282 -674.22175511 173.43959409 -668.1484375 172.30078125 C-667.16056244 172.11555908 -666.17268738 171.93033691 -665.15487671 171.73950195 C-660.17739929 170.80620272 -655.19998093 169.87259005 -650.22265625 168.93847656 C-641.10206419 167.22710246 -631.98104057 165.51817997 -622.85801697 163.81980896 C-601.63956243 159.86957414 -580.43783857 155.86478415 -559.28242493 151.58892822 C-558.6014122 151.45130066 -557.92039948 151.3136731 -557.21875 151.171875 C-556.54663986 151.0360199 -555.87452972 150.90016479 -555.18205261 150.76019287 C-548.02666029 149.31748385 -540.8595262 147.93651643 -533.69140625 146.55859375 C-521.82838005 144.2767723 -509.98057134 141.92607274 -498.13705444 139.54547119 C-488.60101973 137.62929648 -479.059133 135.75225571 -469.50390625 133.93359375 C-458.56618861 131.8460704 -447.66383648 129.61504036 -436.76953125 127.3125 C-433.4456103 126.61215421 -430.1206521 125.91704401 -426.79524231 125.22381592 C-395.68038412 118.73665859 -364.640738 112.0013776 -333.76953125 104.43066406 C-329.99625756 103.51103158 -326.21941929 102.60693054 -322.44140625 101.70703125 C-321.1418284 101.39663818 -319.84226771 101.08617326 -318.54272461 100.77563477 C-316.11435405 100.19588653 -313.68552037 99.61807265 -311.25610352 99.04272461 C-299.39515089 96.20045681 -287.72267724 92.76365233 -276.06640625 89.18359375 C-274.06780646 88.57259559 -272.06910668 87.96192442 -270.0703125 87.3515625 C-269.08434082 87.05040527 -268.09836914 86.74924805 -267.08251953 86.43896484 C-262.72660578 85.11254828 -258.36576834 83.80279369 -254.00390625 82.49609375 C-252.78344604 82.12979858 -252.78344604 82.12979858 -251.53833008 81.75610352 C-247.4409799 80.52742789 -243.3414797 79.30666319 -239.23828125 78.09765625 C-230.47016132 75.50596253 -221.74581963 72.80971764 -213.06640625 69.93359375 C-212.22601807 69.65652588 -211.38562988 69.37945801 -210.51977539 69.09399414 C-206.37210746 67.70458093 -202.29340024 66.22095393 -198.2421875 64.5703125 C-193.07041894 62.46890303 -187.81323018 60.71438404 -182.50390625 58.99609375 C-176.59703164 57.08367419 -170.87349318 55.06061055 -165.19140625 52.55859375 C-162.96747691 51.71138257 -160.73782117 50.87911345 -158.50390625 50.05859375 C-155.39724363 48.89853659 -152.29404795 47.72935802 -149.19140625 46.55859375 C-148.26263672 46.20861328 -147.33386719 45.85863281 -146.37695312 45.49804688 C-117.46115464 34.53515503 -89.12335735 21.99497059 -61.20507812 8.70556641 C-17.9049251 -11.77703629 -17.9049251 -11.77703629 0 0 Z " fill="#FEFEFE" transform="translate(1233.19140625,226.44140625)"/>
<path d="M0 0 C0.1210275 5.97669836 -0.32809985 11.67913476 -1.1015625 17.6015625 C-1.27678688 18.99513222 -1.27678688 18.99513222 -1.45555115 20.41685486 C-1.70876938 22.43017456 -1.96398154 24.44324427 -2.22097778 26.45608521 C-2.92138313 31.94965652 -3.60433795 37.44537744 -4.28515625 42.94140625 C-4.42749191 44.09013718 -4.56982758 45.2388681 -4.71647644 46.42240906 C-6.27879959 59.12325116 -7.67354194 71.84174588 -9.0625 84.5625 C-10.84387892 100.84672372 -12.71875558 117.11067787 -14.80252075 133.35891724 C-16.70397081 148.22123269 -18.36920038 163.10577682 -20 178 C-21.80341913 194.47077087 -23.69429592 210.92192586 -25.80224609 227.35644531 C-27.85277086 243.38421861 -29.62520168 259.43928292 -31.38323975 275.50143433 C-33.10226191 291.18679036 -34.93512857 306.85029709 -36.93701172 322.50195312 C-38.42545922 334.15557998 -39.77097684 345.81623099 -41 357.5 C-42.3148383 369.99957491 -43.7804509 382.4705715 -45.375 394.9375 C-47.42126681 410.94051955 -49.24467006 426.96259115 -51 443 C-52.80324263 459.47078896 -54.69429632 475.92192896 -56.80224609 492.35644531 C-58.85277086 508.38421861 -60.62520168 524.43928292 -62.38323975 540.50143433 C-64.01289848 555.37138654 -65.72805775 570.22425374 -67.625 585.0625 C-69.23433423 597.65450201 -70.72346807 610.25128436 -72.0625 622.875 C-72.14307648 623.63452972 -72.22365295 624.39405945 -72.30667114 625.17660522 C-72.38666351 625.93067657 -72.46665588 626.68474792 -72.54907227 627.46166992 C-75.04957763 651.01319128 -77.86091046 674.52479663 -81 698 C-86.32825088 699.89009423 -91.65875531 701.77365662 -96.99121094 703.65185547 C-98.79518961 704.28819697 -100.5986003 704.92615153 -102.40136719 705.56591797 C-112.83989017 709.26896942 -123.29722246 712.7596603 -133.92420959 715.88356018 C-141.26480832 718.04917463 -148.47272021 720.50652796 -155.6875 723.0625 C-164.01346755 725.97578029 -172.31985551 728.78784211 -180.81323242 731.16821289 C-187.79853561 733.15792374 -194.611414 735.624271 -201.45629883 738.04589844 C-208.7430249 740.60684178 -216.07304016 742.89083602 -223.50390625 744.9921875 C-226.69434458 745.91188927 -229.85003599 746.950012 -233 748 C-235.475 735.625 -235.475 735.625 -238 723 C-239.4025 724.340625 -240.805 725.68125 -242.25 727.0625 C-252.25290543 736.34349688 -263.56310608 744.57441472 -275 752 C-274.54234704 754.91677485 -274.08391617 757.83342383 -273.625 760.75 C-273.48707031 761.62889893 -273.34914063 762.50779785 -273.20703125 763.41333008 C-272.50876874 767.84558401 -271.78394979 772.26947789 -271 776.6875 C-270.664525 778.79132628 -270.33152335 780.8955474 -270 783 C-269.87592773 783.69802734 -269.75185547 784.39605469 -269.62402344 785.11523438 C-260.28509828 838.67606754 -267.19811962 904.05390764 -289.99682617 953.75805664 C-291.04056825 956.09066396 -291.98117014 958.4476424 -292.91015625 960.828125 C-304.58099273 990.26337033 -321.36550829 1017.26747943 -341 1042 C-341.48162598 1042.61311035 -341.96325195 1043.2262207 -342.45947266 1043.85791016 C-357.67873232 1063.19915391 -374.61537864 1080.79440091 -394 1096 C-394.59586914 1096.47373047 -395.19173828 1096.94746094 -395.80566406 1097.43554688 C-411.30524179 1109.73286067 -427.68015941 1120.46196642 -445.05126953 1129.921875 C-447.08136308 1131.0450137 -449.0866866 1132.204552 -451.08984375 1133.375 C-458.20527125 1137.51327179 -465.12501699 1141.12051786 -472.9375 1143.83203125 C-475.31668993 1144.73940088 -477.39197045 1145.70227949 -479.62890625 1146.8828125 C-484.85425499 1149.55011156 -490.36603841 1151.26536603 -495.9375 1153.0625 C-496.97068359 1153.40087891 -498.00386719 1153.73925781 -499.06835938 1154.08789062 C-501.10390016 1154.75437231 -503.14058547 1155.41736979 -505.1784668 1156.07666016 C-507.65556451 1156.88728433 -510.11620368 1157.73468742 -512.578125 1158.58984375 C-517.5748784 1160.25955513 -522.66871921 1161.3825704 -527.8125 1162.5 C-529.6526503 1162.90485919 -531.49249326 1163.31111773 -533.33203125 1163.71875 C-534.72252686 1164.02655396 -534.72252686 1164.02655396 -536.14111328 1164.34057617 C-539.08072137 1165.01861899 -541.99740627 1165.76394977 -544.91796875 1166.51953125 C-567.06892761 1172.06304176 -589.41180386 1172.42077854 -612.125 1172.5 C-613.3823999 1172.51026215 -614.6397998 1172.52052429 -615.93530273 1172.53109741 C-639.68685695 1172.68514003 -662.81160498 1170.25277023 -686 1165 C-687.18078125 1164.76152344 -688.3615625 1164.52304688 -689.578125 1164.27734375 C-699.51750935 1162.19594947 -709.15373668 1159.16349391 -718.8125 1156.0625 C-719.4739502 1155.85148651 -720.13540039 1155.64047302 -720.81689453 1155.42306519 C-729.39219999 1152.67680287 -737.74358174 1149.59902783 -746 1146 C-746.79833252 1145.66105713 -747.59666504 1145.32211426 -748.41918945 1144.97290039 C-789.17208992 1127.61316673 -824.16082115 1102.47807397 -856 1072 C-856.89074219 1071.15179687 -857.78148437 1070.30359375 -858.69921875 1069.4296875 C-863.38227539 1064.86922397 -867.55217791 1060.03010444 -871.6328125 1054.92578125 C-873.66940558 1052.40860598 -875.76113183 1049.95462691 -877.88671875 1047.51269531 C-900.338956 1021.57038967 -918.22127019 990.78651788 -931 959 C-931.68108982 957.49707854 -932.36812274 955.9968288 -933.0625 954.5 C-935.74510843 948.46967362 -937.90207633 942.25327054 -940 936 C-940.39058594 934.85015625 -940.78117188 933.7003125 -941.18359375 932.515625 C-945.70335078 918.23022901 -948.39643955 903.43198014 -951.26708984 888.74316406 C-951.69342618 886.56575277 -952.12734129 884.3897471 -952.58056641 882.21777344 C-955.79100826 866.1686902 -956.3298778 849.88154236 -956.26074219 833.56420898 C-956.25001965 830.56799034 -956.26071582 827.57237261 -956.2734375 824.57617188 C-956.28613038 807.34761236 -955.13237011 790.44297215 -951.7109375 773.5390625 C-951.09392844 770.46757783 -950.58742889 767.40990105 -950.125 764.3125 C-947.83402486 750.56664915 -944.20340502 737.1481283 -940 723.875 C-939.68015137 722.85704346 -939.36030273 721.83908691 -939.03076172 720.7902832 C-937.08363331 714.78639178 -934.7764938 709.09494344 -932.09814453 703.38085938 C-930.87940496 700.73854095 -929.88691746 698.06211161 -928.9375 695.3125 C-919.62377738 670.80576737 -905.53704025 648.00843171 -890 627 C-889.55382324 626.39542969 -889.10764648 625.79085937 -888.64794922 625.16796875 C-883.82896715 618.67790257 -878.79129661 612.45000429 -873.30078125 606.51171875 C-871.45817792 604.50018404 -869.67785166 602.46029835 -867.90234375 600.390625 C-863.68912578 595.56432944 -859.20611811 591.02003927 -854.67675781 586.49145508 C-853.26080053 585.07331716 -851.85301711 583.64703335 -850.4453125 582.22070312 C-844.2753403 576.03784101 -837.83713644 570.42889646 -831 565 C-829.79137362 563.99958365 -828.58522623 562.99615614 -827.3828125 561.98828125 C-811.48342657 548.84700114 -794.00543477 537.9979299 -776 528 C-775.34966797 527.6376123 -774.69933594 527.27522461 -774.02929688 526.90185547 C-768.12657429 523.62618581 -762.25941257 520.52783969 -756 518 C-754.66530939 517.3988377 -753.33211343 516.79435167 -752 516.1875 C-745.41616819 513.25511074 -738.71031926 510.6257771 -732 508 C-731.08347656 507.63777344 -730.16695312 507.27554687 -729.22265625 506.90234375 C-721.50519439 503.96518954 -713.56685944 501.85844992 -705.59985352 499.72216797 C-703.69267478 499.19240605 -701.79301236 498.63538618 -699.89819336 498.06298828 C-690.73782442 495.32174052 -681.60254017 493.44552482 -672.1875 491.875 C-671.42077972 491.74615417 -670.65405945 491.61730835 -669.86410522 491.48455811 C-649.11556721 488.02642371 -628.76926102 486.84194169 -607.75 486.8125 C-606.85576324 486.81123108 -605.96152649 486.80996216 -605.04019165 486.80865479 C-602.47983003 486.80906753 -599.91969748 486.81840348 -597.359375 486.83203125 C-596.58963852 486.83325485 -595.81990204 486.83447845 -595.02684021 486.83573914 C-591.21688085 486.86887848 -587.71155992 487.1556181 -584 488 C-582.59869113 488.13503641 -581.19451597 488.24296648 -579.7890625 488.32421875 C-547.96707543 490.49675378 -513.03541606 497.29834912 -484.06640625 511.07421875 C-480.78589309 512.54393826 -477.37846139 513.64603519 -473.96875 514.77734375 C-469.78176363 516.50172103 -465.92081336 518.74466965 -462 521 C-461.96036133 520.39567139 -461.92072266 519.79134277 -461.87988281 519.16870117 C-461.01598929 506.33558678 -459.88900163 493.57906912 -458.359375 480.80859375 C-456.29713258 463.24211497 -454.48712476 445.64956772 -452.6875 428.0546875 C-452.61356994 427.33196191 -452.53963987 426.60923632 -452.46346951 425.86460996 C-451.54028703 416.83667712 -450.62085008 407.80836463 -449.70270991 398.77991778 C-449.0801304 392.65912281 -448.45536173 386.53855299 -447.82999802 380.41804194 C-443.43300191 337.50132193 -443.43300191 337.50132193 -439.24145508 294.56417847 C-438.49802765 286.77612168 -437.66895392 279.00523486 -436.73714256 271.23739529 C-435.88053869 264.0767058 -435.14014633 256.90550685 -434.4140625 249.73046875 C-434.27107412 248.32703762 -434.12794279 246.92362105 -433.98468018 245.5202179 C-433.76068664 243.32564284 -433.53680513 241.13105689 -433.31342316 238.93641949 C-432.77244716 233.62248365 -432.2258495 228.30914624 -431.67626953 222.99609375 C-431.59803137 222.23939203 -431.51979321 221.48269032 -431.43918419 220.70305824 C-431.28216096 219.18438917 -431.12513216 217.66572067 -430.96809769 216.14705276 C-430.8909692 215.40114254 -430.81384071 214.65523232 -430.734375 213.88671875 C-430.65747814 213.14323559 -430.58058128 212.39975243 -430.50135422 211.63373947 C-429.67503683 203.63862952 -428.85957492 195.6428275 -428.08840942 187.64216614 C-427.76632108 184.31945236 -427.43106447 180.99817228 -427.09197998 177.67715454 C-426.95017406 176.25428867 -426.81484369 174.83075856 -426.68682861 173.40658569 C-425.32362688 158.27375559 -420.31723157 146.68412334 -409.1875 136.25 C-401.16768494 129.68015781 -391.4906113 126.58813147 -381.75 123.4375 C-380.5441626 123.04111328 -379.3383252 122.64472656 -378.09594727 122.23632812 C-371.3790499 120.043575 -364.65589646 118.0128293 -357.83984375 116.15625 C-350.97332917 114.17280545 -344.2632979 111.64510924 -337.52197266 109.27954102 C-330.94428284 106.98308952 -324.40005754 104.9069894 -317.67578125 103.08984375 C-311.52187723 101.26525372 -305.49913732 99.05985995 -299.44848633 96.92163086 C-293.28729267 94.75751474 -287.12227314 92.8428222 -280.81640625 91.140625 C-274.42701612 89.23100175 -268.16622291 86.93088513 -261.90429688 84.640625 C-260.95490234 84.3003125 -260.00550781 83.96 -259.02734375 83.609375 C-258.17906006 83.29967773 -257.33077637 82.98998047 -256.45678711 82.67089844 C-253.85771429 81.96114468 -251.68023565 81.9521041 -249 82 C-249.62844732 94.12393985 -250.78067037 106.14628419 -252.109375 118.2109375 C-252.32042872 120.15008784 -252.53121743 122.08926703 -252.74176025 124.0284729 C-253.18330433 128.0880827 -253.62730532 132.1474134 -254.07324219 136.20654297 C-254.62944651 141.27016153 -255.18070839 146.33430158 -255.7302475 151.39864731 C-257.98593265 172.17336167 -260.32509612 192.93494642 -262.82671356 213.68149948 C-264.4738921 227.36167435 -266.02008089 241.05073901 -267.5 254.75 C-267.60314766 255.70465778 -267.70629532 256.65931557 -267.81256866 257.64290237 C-268.54484822 264.42826565 -269.27289661 271.21408038 -270 278 C-270.83043708 285.75031352 -271.6627269 293.50042168 -272.5 301.25 C-272.60314577 302.20497816 -272.70629154 303.15995632 -272.81256294 304.14387321 C-274.28706364 317.76436408 -275.85473103 331.37132512 -277.49609375 344.97265625 C-280.0891156 366.46017765 -282.43311394 387.97224621 -284.74578857 409.49151611 C-285.69338575 418.30586818 -286.64491736 427.11979614 -287.59765625 435.93359375 C-287.75185374 437.36091733 -287.75185374 437.36091733 -287.90916634 438.81707573 C-289.40762615 452.67648246 -290.95684503 466.52923852 -292.55239868 480.3777771 C-293.71586638 490.479511 -294.8493905 500.58426016 -295.96484375 510.69140625 C-296.12772717 512.16599065 -296.29061474 513.6405746 -296.45350647 515.11515808 C-297.03463608 520.3776945 -297.61521706 525.64029146 -298.19561768 530.90290833 C-301.81720854 563.73230368 -301.81720854 563.73230368 -303.62890625 578.57421875 C-303.74902573 579.56092056 -303.8691452 580.54762238 -303.99290466 581.56422424 C-304.52687858 585.93438102 -305.06993477 590.30310623 -305.62866211 594.67016602 C-308.29065302 610.88488335 -308.29065302 610.88488335 -303.6953125 626.0234375 C-298.87621176 631.64202039 -293.08437778 634.59957081 -285.8125 635.3125 C-271.23974626 634.11801199 -255.21364821 620.1922439 -245.984375 609.7109375 C-243.58681609 606.43553222 -241.75354055 603.05908376 -239.9375 599.4375 C-239.59912109 598.79748047 -239.26074219 598.15746094 -238.91210938 597.49804688 C-232.45627721 584.69876646 -231.73149783 570.14239807 -230.125 556.125 C-229.86382404 553.89569785 -229.60217879 551.66645063 -229.34008789 549.43725586 C-227.40769567 532.91211614 -225.59651169 516.37384717 -223.82250977 499.83105469 C-221.98590824 482.71841134 -220.00443412 465.62441445 -217.99711609 448.53108215 C-217.16296767 441.41779462 -216.34298608 434.30293133 -215.52734375 427.1875 C-211.18340671 389.31341612 -211.18340671 389.31341612 -208.859375 370.58068848 C-206.58900689 352.27864621 -204.522723 333.95581323 -202.5 315.625 C-202.42460243 314.94171379 -202.34920486 314.25842758 -202.27152252 313.55443573 C-202.11949436 312.17657793 -201.9674723 310.79871945 -201.81545639 309.42086029 C-201.44095485 306.02664719 -201.06628174 302.63245307 -200.69140625 299.23828125 C-200.61814621 298.57490501 -200.54488617 297.91152878 -200.46940613 297.22805023 C-199.16438276 285.41824419 -197.81928372 273.61355352 -196.4375 261.8125 C-196.33919891 260.97276642 -196.24089783 260.13303284 -196.13961792 259.26785278 C-195.74050409 255.86012274 -195.34111756 252.45242487 -194.9412384 249.04478455 C-193.63276011 237.88582601 -192.34881897 226.7240302 -191.0625 215.5625 C-190.80852719 213.35978019 -190.55453954 211.1570621 -190.30053711 208.9543457 C-189.78898111 204.51791302 -189.27751736 200.08146972 -188.76611328 195.64501953 C-188.13455322 190.16657985 -187.50267352 184.68817712 -186.87049866 179.20980835 C-186.62075586 177.04528932 -186.371112 174.88075886 -186.12156677 172.71621704 C-185.50159598 167.33983395 -184.87991033 161.96365997 -184.25463867 156.58789062 C-183.0806403 146.47864951 -181.92399667 136.36825538 -180.82415771 126.25064087 C-180.30645976 121.49752 -179.7795515 116.74543903 -179.25195312 111.9934082 C-179.00419308 109.73837457 -178.76089467 107.48284544 -178.52246094 105.22680664 C-176.46907297 85.81468521 -174.04656191 67.23652015 -158 54 C-150.88941994 49.05095689 -143.43600086 46.07792481 -135.25 43.375 C-134.17234375 43.00632812 -133.0946875 42.63765625 -131.984375 42.2578125 C-126.38662853 40.36524107 -120.76911072 38.62928469 -115.078125 37.0390625 C-107.77678108 34.98638232 -100.64827353 32.52832826 -93.5 30 C-85.22352677 27.07263005 -76.95656562 24.38231673 -68.50048828 22.02294922 C-62.48429964 20.26483579 -56.59556947 18.15040953 -50.6875 16.0625 C-42.11613374 13.05920552 -33.54608055 10.15698531 -24.79931641 7.70263672 C-18.88784712 6.02593455 -13.12098065 3.99107069 -7.35253906 1.87792969 C-2.19379941 0 -2.19379941 0 0 0 Z " fill="#E50D03" transform="translate(1598,374)"/>
<path d="M0 0 C20.78824629 20.72075198 24.21024321 50.52790492 24.28337097 78.41732788 C24.20348274 94.85763743 22.32562817 111.16417647 20.59002304 127.49530411 C20.117863 131.96930134 19.66273009 136.44502984 19.20629883 140.9206543 C18.56847334 147.16284287 17.92620969 153.4045367 17.27704525 159.64555645 C15.85063289 173.36188296 14.51061992 187.08582771 13.1875 200.8125 C12.05826522 212.51110213 10.87945456 224.20208264 9.61328125 235.88671875 C8.37428994 247.33584873 7.20411415 258.79081467 6.0625 270.25 C5.97872416 271.09066702 5.89494831 271.93133404 5.8086338 272.79747581 C5.2043372 278.86484315 4.60196229 284.93240069 4 291 C3.31378956 297.91679533 2.62674069 304.8335059 1.9375 311.75 C1.85431015 312.58510605 1.7711203 313.4202121 1.68540955 314.28062439 C0.49848949 326.18076037 -0.73982642 338.07410701 -2.02819824 349.96374512 C-2.91311114 358.13740806 -3.73346163 366.31429935 -4.5 374.5 C-5.54586316 385.48986371 -6.67914528 396.46694787 -7.875 407.44140625 C-8.81447737 416.12178566 -9.67137908 424.80838739 -10.5 433.5 C-11.5725394 444.7472648 -12.70742608 455.98543769 -13.95410156 467.21484375 C-14.50572896 472.20942357 -15.03791239 477.19379475 -15.38671875 482.20703125 C-17.29438874 508.44674132 -25.66874039 534.90011437 -36 559 C-36.41894531 559.98629395 -36.83789062 560.97258789 -37.26953125 561.98876953 C-48.50443516 588.31411378 -61.1747251 614.33139612 -79.67041016 636.41015625 C-81.00891387 638.01065867 -82.32382851 639.62845175 -83.63671875 641.25 C-119.11742281 684.63917139 -168.47868561 705.97832959 -223 714 C-224.29679687 714.1959375 -225.59359375 714.391875 -226.9296875 714.59375 C-249.20481194 717.24210004 -274.00480365 715.87757019 -293 703 C-293.13855408 704.25631477 -293.13855408 704.25631477 -293.27990723 705.53800964 C-296.05894782 730.70781239 -298.90359974 755.86990949 -301.78173828 781.02856445 C-302.26189132 785.22665816 -302.74067586 789.42490449 -303.21826172 793.62329102 C-308.08347494 836.38630089 -308.08347494 836.38630089 -310.72595215 856.1209259 C-311.66199428 863.14479724 -312.46063147 870.17147053 -313.16130066 877.22285461 C-317.08463498 916.63171123 -329.09664081 952.62793453 -360.5625 978.8125 C-362.36363578 980.22296689 -364.17564548 981.61969658 -366 983 C-366.77601562 983.60328125 -367.55203125 984.2065625 -368.3515625 984.828125 C-378.40848208 992.29513552 -390.24657786 997.76311886 -402 1002 C-402.6904541 1002.25104492 -403.3809082 1002.50208984 -404.09228516 1002.76074219 C-413.29107548 1006.09228838 -422.50138532 1009.21865871 -431.91870117 1011.87036133 C-440.58882297 1014.36968471 -449.07979455 1017.4323704 -457.58569336 1020.43481445 C-476.30467388 1027 -476.30467388 1027 -482 1027 C-480.29055965 1008.24943141 -478.12792854 989.57325344 -475.80004883 970.89044189 C-473.68884199 953.92021933 -471.73733805 936.93675886 -469.875 919.9375 C-468.18581031 904.5265384 -466.44177715 889.13209173 -464.46386719 873.75537109 C-463.05559583 862.70463396 -461.83551467 851.63636268 -460.625 840.5625 C-458.89207098 824.71304835 -457.03040944 808.88444739 -455.0625 793.0625 C-452.90653732 775.72212303 -450.90105842 758.37013602 -449 741 C-447.00993794 722.81716328 -444.88814811 704.65693827 -442.62701416 686.50588989 C-440.42883975 668.83245959 -438.4322134 651.14064834 -436.49124146 633.43728638 C-434.92844216 619.19321433 -433.29202704 604.96790043 -431.46386719 590.75537109 C-430.0555951 579.70462823 -428.83574439 568.63634138 -427.625 557.5625 C-425.88640085 541.67233185 -424.02792817 525.80118826 -422.0625 509.9375 C-419.95163247 492.88271744 -417.90338459 475.82213895 -415.9375 458.75 C-415.81289398 457.66818451 -415.68828796 456.58636902 -415.55990601 455.47177124 C-413.67992648 439.12387748 -411.86291923 422.76937401 -410.06271362 406.41253662 C-408.65273458 393.62150525 -407.14385638 380.84956188 -405.5168457 368.08422852 C-403.53941435 352.51627149 -401.76033395 336.92538423 -399.96316528 321.33578491 C-399.23038102 314.98223358 -398.49039036 308.62955604 -397.74609375 302.27734375 C-397.33045865 298.7265941 -396.91509451 295.17581288 -396.5 291.625 C-396.39696564 290.74367401 -396.29393127 289.86234802 -396.18777466 288.95431519 C-395.00951315 278.86102867 -393.85585393 268.76555569 -392.75 258.6640625 C-392.64682968 257.72213547 -392.54365936 256.78020844 -392.43736267 255.80973816 C-392.228981 253.90667753 -392.02060188 252.00361661 -391.81222534 250.10055542 C-391.70919098 249.15987213 -391.60615662 248.21918884 -391.5 247.25 C-391.345811 245.84175461 -391.345811 245.84175461 -391.18850708 244.40505981 C-389.65743951 230.46455528 -387.95025678 216.55537871 -386.12011719 202.65124512 C-384.45932637 190.00314043 -383.04870079 177.34366707 -381.76199341 164.65246582 C-380.33291718 150.60290246 -378.61079304 136.60215571 -376.75 122.60351562 C-375.31322951 111.75264945 -374.09759216 100.89038516 -373 90 C-341.13700393 78.88717141 -341.13700393 78.88717141 -331.75 76.25 C-324.86756219 74.31168078 -318.17063612 71.98985362 -311.43847656 69.58496094 C-305.49097438 67.47707258 -299.50940828 65.63624454 -293.44018555 63.91625977 C-287.81930007 62.29891399 -282.32026775 60.40311477 -276.8125 58.4375 C-270.00734971 56.01074185 -263.22318216 53.80969054 -256.25 51.91015625 C-252.81987802 50.94955719 -249.44877803 49.8543884 -246.0625 48.75 C-239.78056276 46.83347678 -235.04929395 45.91637402 -228.875 48.5625 C-223.73383046 51.35769898 -220.8276976 55.5169072 -219 61 C-218.93197033 62.72795352 -218.91504355 64.45835365 -218.9375 66.1875 C-218.94652344 67.08855469 -218.95554687 67.98960937 -218.96484375 68.91796875 C-218.98224609 69.94857422 -218.98224609 69.94857422 -219 71 C-214.71542566 67.36920267 -210.60652271 63.65013343 -206.6875 59.625 C-202.68771105 55.58432735 -198.47784209 51.96624609 -194.03515625 48.421875 C-191.93479383 46.74591013 -189.86465458 45.05603185 -187.80859375 43.328125 C-163.60634301 23.1809373 -136.17368529 7.67082882 -107 -4 C-106.00613281 -4.41636719 -105.01226563 -4.83273437 -103.98828125 -5.26171875 C-94.70002543 -8.95077483 -84.72504705 -10.80995449 -75 -13 C-74.17508057 -13.18836426 -73.35016113 -13.37672852 -72.50024414 -13.57080078 C-71.71512451 -13.74853027 -70.93000488 -13.92625977 -70.12109375 -14.109375 C-69.08359985 -14.34479004 -69.08359985 -14.34479004 -68.02514648 -14.58496094 C-44.511898 -19.40383043 -18.46134454 -16.1814797 0 0 Z " fill="#FEFEFE" transform="translate(2026,266)"/>
<path d="M0 0 C0.1210275 5.97669836 -0.32809985 11.67913476 -1.1015625 17.6015625 C-1.21837875 18.53060898 -1.33519501 19.45965546 -1.45555115 20.41685486 C-1.70876938 22.43017456 -1.96398154 24.44324427 -2.22097778 26.45608521 C-2.92138313 31.94965652 -3.60433795 37.44537744 -4.28515625 42.94140625 C-4.42749191 44.09013718 -4.56982758 45.2388681 -4.71647644 46.42240906 C-6.27879959 59.12325116 -7.67354194 71.84174588 -9.0625 84.5625 C-10.84387892 100.84672372 -12.71875558 117.11067787 -14.80252075 133.35891724 C-16.70397081 148.22123269 -18.36920038 163.10577682 -20 178 C-21.80341913 194.47077087 -23.69429592 210.92192586 -25.80224609 227.35644531 C-27.85277086 243.38421861 -29.62520168 259.43928292 -31.38323975 275.50143433 C-33.10226191 291.18679036 -34.93512857 306.85029709 -36.93701172 322.50195312 C-38.42545922 334.15557998 -39.77097684 345.81623099 -41 357.5 C-42.3148383 369.99957491 -43.7804509 382.4705715 -45.375 394.9375 C-47.42126681 410.94051955 -49.24467006 426.96259115 -51 443 C-52.80324263 459.47078896 -54.69429632 475.92192896 -56.80224609 492.35644531 C-58.85277086 508.38421861 -60.62520168 524.43928292 -62.38323975 540.50143433 C-64.01289848 555.37138654 -65.72805775 570.22425374 -67.625 585.0625 C-69.23433423 597.65450201 -70.72346807 610.25128436 -72.0625 622.875 C-72.18336472 624.01429459 -72.18336472 624.01429459 -72.30667114 625.17660522 C-72.38666351 625.93067657 -72.46665588 626.68474792 -72.54907227 627.46166992 C-75.04957763 651.01319128 -77.86091046 674.52479663 -81 698 C-86.32825088 699.89009423 -91.65875531 701.77365662 -96.99121094 703.65185547 C-98.79518961 704.28819697 -100.5986003 704.92615153 -102.40136719 705.56591797 C-112.83989017 709.26896942 -123.29722246 712.7596603 -133.92420959 715.88356018 C-141.26480832 718.04917463 -148.47272021 720.50652796 -155.6875 723.0625 C-164.01346755 725.97578029 -172.31985551 728.78784211 -180.81323242 731.16821289 C-187.79853561 733.15792374 -194.611414 735.624271 -201.45629883 738.04589844 C-208.7430249 740.60684178 -216.07304016 742.89083602 -223.50390625 744.9921875 C-226.69434458 745.91188927 -229.85003599 746.950012 -233 748 C-234.65 739.75 -236.3 731.5 -238 723 C-239.4025 724.340625 -240.805 725.68125 -242.25 727.0625 C-270.66453575 753.29748632 -306.54851654 773.48481998 -342.88916016 786.25048828 C-347.33433923 787.82887132 -351.73957645 789.5140158 -356.140625 791.2109375 C-363.13368132 793.828941 -370.13719288 795.92919322 -377.375 797.75 C-378.20676758 797.96060059 -379.03853516 798.17120117 -379.89550781 798.38818359 C-401.41520313 803.64539608 -425.98888414 803.8687855 -446 793.625 C-457.89827696 786.26595009 -467.10120246 777.1743486 -474 765 C-474.39058594 764.31679687 -474.78117187 763.63359375 -475.18359375 762.9296875 C-481.12473158 751.1398809 -482.32482179 738.00886207 -482.26464844 725.0300293 C-482.26079006 723.80745013 -482.25693169 722.58487097 -482.25295639 721.32524395 C-482.12124244 708.56972712 -480.91537678 696.00050188 -479.515625 683.33203125 C-479.2548429 680.86966171 -478.99541652 678.40714826 -478.73724365 675.94450378 C-478.06102777 669.52626963 -477.36787331 663.10998624 -476.67041016 656.69403076 C-475.97649092 650.28726626 -475.29701323 643.87897592 -474.6171875 637.47070312 C-473.82156773 629.97488201 -473.02529085 622.47914364 -472.22180176 614.98416138 C-470.4777567 598.69098819 -468.81947698 582.39162003 -467.27984619 566.07783508 C-466.51171789 557.97530524 -465.66026508 549.89045008 -464.690485 541.80942631 C-464.0829002 536.74514765 -463.53966089 531.68028221 -463.0703125 526.6015625 C-462.91283459 524.9479096 -462.75527973 523.29426403 -462.59765625 521.640625 C-462.36414785 519.16840879 -462.13163649 516.69610733 -461.90087891 514.22363281 C-460.90817094 503.62469873 -459.78455723 493.04784306 -458.54641342 482.47470856 C-455.29009879 454.61029159 -452.54093531 426.68932316 -449.70270908 398.77991164 C-449.08013033 392.65911867 -448.45536152 386.53855094 -447.82999802 380.41804194 C-443.43300191 337.50132193 -443.43300191 337.50132193 -439.24145508 294.56417847 C-438.49802765 286.77612168 -437.66895392 279.00523486 -436.73714256 271.23739529 C-435.88053869 264.0767058 -435.14014633 256.90550685 -434.4140625 249.73046875 C-434.27107412 248.32703762 -434.12794279 246.92362105 -433.98468018 245.5202179 C-433.76068664 243.32564284 -433.53680513 241.13105689 -433.31342316 238.93641949 C-432.77244716 233.62248365 -432.2258495 228.30914624 -431.67626953 222.99609375 C-431.59803137 222.23939203 -431.51979321 221.48269032 -431.43918419 220.70305824 C-431.28216096 219.18438917 -431.12513216 217.66572067 -430.96809769 216.14705276 C-430.8909692 215.40114254 -430.81384071 214.65523232 -430.734375 213.88671875 C-430.65747814 213.14323559 -430.58058128 212.39975243 -430.50135422 211.63373947 C-429.67503683 203.63862952 -428.85957492 195.6428275 -428.08840942 187.64216614 C-427.76632108 184.31945236 -427.43106447 180.99817228 -427.09197998 177.67715454 C-426.95017406 176.25428867 -426.81484369 174.83075856 -426.68682861 173.40658569 C-425.32362688 158.27375559 -420.31723157 146.68412334 -409.1875 136.25 C-401.16768494 129.68015781 -391.4906113 126.58813147 -381.75 123.4375 C-380.5441626 123.04111328 -379.3383252 122.64472656 -378.09594727 122.23632812 C-371.3790499 120.043575 -364.65589646 118.0128293 -357.83984375 116.15625 C-350.97332917 114.17280545 -344.2632979 111.64510924 -337.52197266 109.27954102 C-330.94428284 106.98308952 -324.40005754 104.9069894 -317.67578125 103.08984375 C-311.52187723 101.26525372 -305.49913732 99.05985995 -299.44848633 96.92163086 C-293.28729267 94.75751474 -287.12227314 92.8428222 -280.81640625 91.140625 C-274.42701612 89.23100175 -268.16622291 86.93088513 -261.90429688 84.640625 C-260.95490234 84.3003125 -260.00550781 83.96 -259.02734375 83.609375 C-258.17906006 83.29967773 -257.33077637 82.98998047 -256.45678711 82.67089844 C-253.85771429 81.96114468 -251.68023565 81.9521041 -249 82 C-249.62844732 94.12393985 -250.78067037 106.14628419 -252.109375 118.2109375 C-252.32042872 120.15008784 -252.53121743 122.08926703 -252.74176025 124.0284729 C-253.18330433 128.0880827 -253.62730532 132.1474134 -254.07324219 136.20654297 C-254.62944651 141.27016153 -255.18070839 146.33430158 -255.7302475 151.39864731 C-257.98593265 172.17336167 -260.32509612 192.93494642 -262.82671356 213.68149948 C-264.4738921 227.36167435 -266.02008089 241.05073901 -267.5 254.75 C-267.60314766 255.70465778 -267.70629532 256.65931557 -267.81256866 257.64290237 C-268.54484822 264.42826565 -269.27289661 271.21408038 -270 278 C-270.83043708 285.75031352 -271.6627269 293.50042168 -272.5 301.25 C-272.65471866 302.68246724 -272.65471866 302.68246724 -272.81256294 304.14387321 C-274.28706364 317.76436408 -275.85473103 331.37132512 -277.49609375 344.97265625 C-280.0891156 366.46017765 -282.43311394 387.97224621 -284.74578857 409.49151611 C-285.69338575 418.30586818 -286.64491736 427.11979614 -287.59765625 435.93359375 C-287.70045458 436.8851428 -287.80325291 437.83669186 -287.90916634 438.81707573 C-289.40762615 452.67648246 -290.95684503 466.52923852 -292.55239868 480.3777771 C-293.71586638 490.479511 -294.8493905 500.58426016 -295.96484375 510.69140625 C-296.12772717 512.16599065 -296.29061474 513.6405746 -296.45350647 515.11515808 C-297.03463608 520.3776945 -297.61521706 525.64029146 -298.19561768 530.90290833 C-301.81720854 563.73230368 -301.81720854 563.73230368 -303.62890625 578.57421875 C-303.80908546 580.05427147 -303.80908546 580.05427147 -303.99290466 581.56422424 C-304.52687858 585.93438102 -305.06993477 590.30310623 -305.62866211 594.67016602 C-308.29065302 610.88488335 -308.29065302 610.88488335 -303.6953125 626.0234375 C-298.87621176 631.64202039 -293.08437778 634.59957081 -285.8125 635.3125 C-271.23974626 634.11801199 -255.21364821 620.1922439 -245.984375 609.7109375 C-243.58681609 606.43553222 -241.75354055 603.05908376 -239.9375 599.4375 C-239.59912109 598.79748047 -239.26074219 598.15746094 -238.91210938 597.49804688 C-232.45627721 584.69876646 -231.73149783 570.14239807 -230.125 556.125 C-229.86382404 553.89569785 -229.60217879 551.66645063 -229.34008789 549.43725586 C-227.40769567 532.91211614 -225.59651169 516.37384717 -223.82250977 499.83105469 C-221.98590824 482.71841134 -220.00443412 465.62441445 -217.99711609 448.53108215 C-217.16296767 441.41779462 -216.34298608 434.30293133 -215.52734375 427.1875 C-211.18340671 389.31341612 -211.18340671 389.31341612 -208.859375 370.58068848 C-206.58900689 352.27864621 -204.522723 333.95581323 -202.5 315.625 C-202.42460243 314.94171379 -202.34920486 314.25842758 -202.27152252 313.55443573 C-202.11949436 312.17657793 -201.9674723 310.79871945 -201.81545639 309.42086029 C-201.44095485 306.02664719 -201.06628174 302.63245307 -200.69140625 299.23828125 C-200.61814621 298.57490501 -200.54488617 297.91152878 -200.46940613 297.22805023 C-199.16438276 285.41824419 -197.81928372 273.61355352 -196.4375 261.8125 C-196.33919891 260.97276642 -196.24089783 260.13303284 -196.13961792 259.26785278 C-195.74050409 255.86012274 -195.34111756 252.45242487 -194.9412384 249.04478455 C-193.63276011 237.88582601 -192.34881897 226.7240302 -191.0625 215.5625 C-190.80852719 213.35978019 -190.55453954 211.1570621 -190.30053711 208.9543457 C-189.78898111 204.51791302 -189.27751736 200.08146972 -188.76611328 195.64501953 C-188.13455322 190.16657985 -187.50267352 184.68817712 -186.87049866 179.20980835 C-186.62075586 177.04528932 -186.371112 174.88075886 -186.12156677 172.71621704 C-185.50159598 167.33983395 -184.87991033 161.96365997 -184.25463867 156.58789062 C-183.0806403 146.47864951 -181.92399667 136.36825538 -180.82415771 126.25064087 C-180.30645976 121.49752 -179.7795515 116.74543903 -179.25195312 111.9934082 C-179.00419308 109.73837457 -178.76089467 107.48284544 -178.52246094 105.22680664 C-176.46907297 85.81468521 -174.04656191 67.23652015 -158 54 C-150.88941994 49.05095689 -143.43600086 46.07792481 -135.25 43.375 C-134.17234375 43.00632812 -133.0946875 42.63765625 -131.984375 42.2578125 C-126.38662853 40.36524107 -120.76911072 38.62928469 -115.078125 37.0390625 C-107.77678108 34.98638232 -100.64827353 32.52832826 -93.5 30 C-85.22352677 27.07263005 -76.95656562 24.38231673 -68.50048828 22.02294922 C-62.48429964 20.26483579 -56.59556947 18.15040953 -50.6875 16.0625 C-42.11613374 13.05920552 -33.54608055 10.15698531 -24.79931641 7.70263672 C-18.88784712 6.02593455 -13.12098065 3.99107069 -7.35253906 1.87792969 C-2.19379941 0 -2.19379941 0 0 0 Z " fill="#FEFEFE" transform="translate(1598,374)"/>
<path d="M0 0 C5.22874597 3.80190337 8.28214787 8.40894361 10.3125 14.5 C11.91388714 33.88092719 9.16874928 53.4828954 6.96303558 72.7090683 C6.58850023 75.99304278 6.22438188 79.27814287 5.86000252 82.56325722 C3.58631766 103.04595686 1.14786373 123.50527644 -1.54418945 143.9375 C-3.20866301 156.58199802 -4.71128252 169.23804281 -6.13800049 181.91149902 C-8.59584602 203.73000643 -11.34123092 225.50253632 -14.22109985 247.26843262 C-16.68588994 265.89764152 -19.08378297 284.5326866 -21.34765625 303.1875 C-21.45869816 304.10205334 -21.56974007 305.01660667 -21.68414688 305.95887375 C-22.77499034 314.94960168 -23.85917125 323.94110729 -24.93352318 332.93382072 C-26.0673993 342.41923426 -27.22179596 351.90178939 -28.41968536 361.37934875 C-28.5959329 362.77493921 -28.77132541 364.17063796 -28.94579315 365.56645203 C-29.49223015 369.93110953 -30.07098104 374.29042914 -30.66796875 378.6484375 C-30.79883377 379.68860016 -30.92969879 380.72876282 -31.06452942 381.80044556 C-33.55830076 399.25191461 -43.33034927 413.77995857 -57.2109375 424.4375 C-67.06599355 431.14240617 -78.58033454 436.24327857 -90.6875 434.5 C-96.33986908 433.23208844 -99.93471906 431.02541231 -103.6875 426.5 C-109.95582944 416.19889918 -104.69486689 395.90247478 -103.6875 384.5 C-103.57968201 383.26469543 -103.47186401 382.02939087 -103.36077881 380.75665283 C-97.94919969 318.99230091 -91.48618245 257.24952002 -82.46020508 195.90209961 C-80.75242839 184.2537398 -79.30491404 172.57854331 -77.87646484 160.89306641 C-76.33917799 148.35025822 -74.61903193 135.84690384 -72.73922729 123.35107422 C-71.46677738 114.89124484 -70.26343018 106.43269517 -69.25 97.9375 C-68.0026576 87.59271304 -66.56926096 77.27609411 -65.08566284 66.96292114 C-64.82341115 65.13487791 -64.5635243 63.30649362 -64.30618286 61.47775269 C-61.30522371 40.20091557 -57.14476196 23.83262761 -39.50390625 9.7578125 C-29.16090903 2.43231355 -12.2486986 -7.47515934 0 0 Z " fill="#01AE44" transform="translate(1868.6875,420.5)"/>
</svg>
